<svg width="1024" height="256" viewBox="0 0 1024 256" fill="none" xmlns="http://www.w3.org/2000/svg">
  <rect width="1024" height="256" fill="white"/>
  <path d="M30 188L118 96H170L90 188H30Z" fill="#1F3E9A"/>
  <path d="M118 96H170L188 188H150L145 176H106L90 188H50L118 96ZM115 152H138L131 118L115 152Z" fill="#E5003E"/>
  <path d="M214 188L243 96H306C332 96 346 108 346 126C346 147 331 160 305 160H264L255 188H214ZM270 132L265 147H300C307 147 313 143 313 136C313 132 309 132 302 132H270Z" fill="#111111"/>
  <path d="M365 188L393 96H431L445 135L489 96H530L502 188H468L484 129L442 166H426L414 129L398 188H365Z" fill="#111111"/>
  <path d="M546 188L557 96H593L588 130L623 96H664L609 148L629 188H589L575 160L584 188H546Z" fill="#111111"/>
  <path d="M680 188L708 96H818L810 120H743L739 131H804L796 155H731L727 166H794L786 188H680Z" fill="#111111"/>
  <path d="M808 188L836 96H895C921 96 936 106 936 124C936 136 929 145 915 150C923 153 927 161 927 169C927 182 916 188 891 188H808ZM858 155L854 167H887C891 167 895 165 895 161C895 158 892 155 887 155H858ZM866 128L862 139H891C895 139 899 137 899 133C899 129 895 128 890 128H866Z" fill="#111111"/>
  <path d="M920 188L1006 96H1050L1023 188H988L993 175H953L940 188H920ZM969 152H998L1004 119L969 152Z" fill="#111111"/>
</svg>
